<svg width="100" height="100" viewBox="0 0 100 100" fill="none" xmlns="http://www.w3.org/2000/svg">
<path d="M16.6667 54.1667H41.6667C43.9583 54.1667 45.8333 52.2917 45.8333 50V16.6667C45.8333 14.375 43.9583 12.5 41.6667 12.5H16.6667C14.375 12.5 12.5 14.375 12.5 16.6667V50C12.5 52.2917 14.375 54.1667 16.6667 54.1667ZM16.6667 87.5H41.6667C43.9583 87.5 45.8333 85.625 45.8333 83.3333V66.6667C45.8333 64.375 43.9583 62.5 41.6667 62.5H16.6667C14.375 62.5 12.5 64.375 12.5 66.6667V83.3333C12.5 85.625 14.375 87.5 16.6667 87.5ZM58.3333 87.5H83.3333C85.625 87.5 87.5 85.625 87.5 83.3333V50C87.5 47.7083 85.625 45.8333 83.3333 45.8333H58.3333C56.0417 45.8333 54.1667 47.7083 54.1667 50V83.3333C54.1667 85.625 56.0417 87.5 58.3333 87.5ZM54.1667 16.6667V33.3333C54.1667 35.625 56.0417 37.5 58.3333 37.5H83.3333C85.625 37.5 87.5 35.625 87.5 33.3333V16.6667C87.5 14.375 85.625 12.5 83.3333 12.5H58.3333C56.0417 12.5 54.1667 14.375 54.1667 16.6667Z" fill="white"/>
</svg>
