<svg width="100" height="100" viewBox="0 0 100 100" fill="none" xmlns="http://www.w3.org/2000/svg">
<path d="M29.0391 33.4609C28.4527 32.8746 28.1233 32.0793 28.1233 31.25C28.1233 30.4207 28.4527 29.6254 29.0391 29.0391C29.6254 28.4527 30.4207 28.1233 31.25 28.1233C32.0793 28.1233 32.8746 28.4527 33.4609 29.0391L46.875 42.457V9.375C46.875 8.5462 47.2042 7.75134 47.7903 7.16529C48.3763 6.57924 49.1712 6.25 50 6.25C50.8288 6.25 51.6237 6.57924 52.2097 7.16529C52.7958 7.75134 53.125 8.5462 53.125 9.375V42.457L66.5391 29.0391C67.1254 28.4527 67.9207 28.1233 68.75 28.1233C69.5793 28.1233 70.3746 28.4527 70.9609 29.0391C71.5473 29.6254 71.8767 30.4207 71.8767 31.25C71.8767 32.0793 71.5473 32.8746 70.9609 33.4609L52.2109 52.2109C51.9207 52.5015 51.5761 52.732 51.1967 52.8893C50.8173 53.0465 50.4107 53.1275 50 53.1275C49.5893 53.1275 49.1827 53.0465 48.8033 52.8893C48.4239 52.732 48.0793 52.5015 47.7891 52.2109L29.0391 33.4609ZM93.75 53.125V78.125C93.75 79.7826 93.0915 81.3723 91.9194 82.5444C90.7473 83.7165 89.1576 84.375 87.5 84.375H12.5C10.8424 84.375 9.25268 83.7165 8.08058 82.5444C6.90848 81.3723 6.25 79.7826 6.25 78.125V53.125C6.25 51.4674 6.90848 49.8777 8.08058 48.7056C9.25268 47.5335 10.8424 46.875 12.5 46.875H32.9688C33.174 46.8748 33.3773 46.9151 33.567 46.9935C33.7566 47.072 33.929 47.187 34.0742 47.332L43.3594 56.6406C44.2303 57.5146 45.2653 58.2081 46.4048 58.6813C47.5444 59.1544 48.7661 59.398 50 59.398C51.2339 59.398 52.4556 59.1544 53.5952 58.6813C54.7347 58.2081 55.7697 57.5146 56.6406 56.6406L65.9375 47.3437C66.226 47.0494 66.6191 46.8809 67.0313 46.875H87.5C89.1576 46.875 90.7473 47.5335 91.9194 48.7056C93.0915 49.8777 93.75 51.4674 93.75 53.125ZM78.125 65.625C78.125 64.6979 77.8501 63.7916 77.335 63.0208C76.8199 62.2499 76.0879 61.6491 75.2313 61.2943C74.3748 60.9395 73.4323 60.8467 72.523 61.0276C71.6137 61.2084 70.7785 61.6549 70.1229 62.3104C69.4674 62.966 69.0209 63.8012 68.8401 64.7105C68.6592 65.6198 68.752 66.5623 69.1068 67.4188C69.4616 68.2754 70.0624 69.0074 70.8333 69.5225C71.6041 70.0376 72.5104 70.3125 73.4375 70.3125C74.6807 70.3125 75.873 69.8186 76.7521 68.9396C77.6311 68.0605 78.125 66.8682 78.125 65.625Z" fill="white"/>
</svg>
