<svg width="256" height="256" viewBox="0 0 256 256" fill="none" xmlns="http://www.w3.org/2000/svg">
<path d="M74.34 85.66C72.8389 84.1589 71.9956 82.1229 71.9956 80C71.9956 77.8771 72.8389 75.8411 74.34 74.34C75.8411 72.8389 77.8771 71.9956 80 71.9956C82.1229 71.9956 84.1589 72.8389 85.66 74.34L120 108.69V24C120 21.8783 120.843 19.8434 122.343 18.3431C123.843 16.8429 125.878 16 128 16C130.122 16 132.157 16.8429 133.657 18.3431C135.157 19.8434 136 21.8783 136 24V108.69L170.34 74.34C171.841 72.8389 173.877 71.9956 176 71.9956C178.123 71.9956 180.159 72.8389 181.66 74.34C183.161 75.8411 184.004 77.8771 184.004 80C184.004 82.1229 183.161 84.1589 181.66 85.66L133.66 133.66C132.917 134.404 132.035 134.994 131.064 135.396C130.092 135.799 129.051 136.006 128 136.006C126.949 136.006 125.908 135.799 124.936 135.396C123.965 134.994 123.083 134.404 122.34 133.66L74.34 85.66ZM240 136V200C240 204.243 238.314 208.313 235.314 211.314C232.313 214.314 228.243 216 224 216H32C27.7565 216 23.6869 214.314 20.6863 211.314C17.6857 208.313 16 204.243 16 200V136C16 131.757 17.6857 127.687 20.6863 124.686C23.6869 121.686 27.7565 120 32 120H84.4C84.9254 120 85.4458 120.103 85.9314 120.303C86.417 120.504 86.8583 120.799 87.23 121.17L111 145C113.23 147.237 115.879 149.013 118.796 150.224C121.714 151.435 124.841 152.059 128 152.059C131.159 152.059 134.286 151.435 137.204 150.224C140.121 149.013 142.77 147.237 145 145L168.8 121.2C169.539 120.446 170.545 120.015 171.6 120H224C228.243 120 232.313 121.686 235.314 124.686C238.314 127.687 240 131.757 240 136ZM200 168C200 165.627 199.296 163.307 197.978 161.333C196.659 159.36 194.785 157.822 192.592 156.913C190.399 156.005 187.987 155.768 185.659 156.231C183.331 156.694 181.193 157.836 179.515 159.515C177.836 161.193 176.694 163.331 176.231 165.659C175.768 167.987 176.005 170.399 176.913 172.592C177.822 174.785 179.36 176.659 181.333 177.978C183.307 179.296 185.627 180 188 180C191.183 180 194.235 178.736 196.485 176.485C198.736 174.235 200 171.183 200 168Z" fill="#46FCD6"/>
</svg>
