<svg width="702" height="164" viewBox="0 0 702 164" fill="none" xmlns="http://www.w3.org/2000/svg">
<path d="M42.496 128.792C31.4027 128.792 22.6133 125.72 16.128 119.576C9.64267 113.347 6.4 104.472 6.4 92.952V71.448C6.4 59.928 9.64267 51.096 16.128 44.952C22.6133 38.7227 31.4027 35.608 42.496 35.608C53.504 35.608 61.9947 38.6373 67.968 44.696C74.0267 50.6693 77.056 58.904 77.056 69.4V70.168H60.416V68.888C60.416 63.5973 58.9227 59.2453 55.936 55.832C53.0347 52.4187 48.5547 50.712 42.496 50.712C36.5227 50.712 31.8293 52.5467 28.416 56.216C25.0027 59.8853 23.296 64.8773 23.296 71.192V93.208C23.296 99.4373 25.0027 104.429 28.416 108.184C31.8293 111.853 36.5227 113.688 42.496 113.688C48.5547 113.688 53.0347 111.981 55.936 108.568C58.9227 105.069 60.416 100.717 60.416 95.512V93.208H77.056V95C77.056 105.496 74.0267 113.773 67.968 119.832C61.9947 125.805 53.504 128.792 42.496 128.792ZM104.647 128.792C100.124 128.792 96.071 128.024 92.487 126.488C88.903 124.867 86.0443 122.563 83.911 119.576C81.863 116.504 80.839 112.792 80.839 108.44C80.839 104.088 81.863 100.461 83.911 97.56C86.0443 94.5733 88.9457 92.3547 92.615 90.904C96.3697 89.368 100.636 88.6 105.415 88.6H122.823V85.016C122.823 82.0293 121.884 79.5973 120.007 77.72C118.13 75.7573 115.143 74.776 111.047 74.776C107.036 74.776 104.05 75.7147 102.087 77.592C100.124 79.384 98.8443 81.7307 98.247 84.632L83.399 79.64C84.423 76.3973 86.0443 73.4533 88.263 70.808C90.567 68.0773 93.5963 65.9013 97.351 64.28C101.191 62.5733 105.842 61.72 111.303 61.72C119.666 61.72 126.279 63.8107 131.143 67.992C136.007 72.1733 138.439 78.232 138.439 86.168V109.848C138.439 112.408 139.634 113.688 142.023 113.688H147.143V127H136.391C133.234 127 130.631 126.232 128.583 124.696C126.535 123.16 125.511 121.112 125.511 118.552V118.424H123.079C122.738 119.448 121.97 120.813 120.775 122.52C119.58 124.141 117.703 125.592 115.143 126.872C112.583 128.152 109.084 128.792 104.647 128.792ZM107.463 115.736C111.986 115.736 115.655 114.499 118.471 112.024C121.372 109.464 122.823 106.093 122.823 101.912V100.632H106.567C103.58 100.632 101.234 101.272 99.527 102.552C97.8203 103.832 96.967 105.624 96.967 107.928C96.967 110.232 97.863 112.109 99.655 113.56C101.447 115.011 104.05 115.736 107.463 115.736ZM152.535 127V63.512H168.407V71.832H170.711C171.735 69.6133 173.655 67.5227 176.471 65.56C179.287 63.512 183.554 62.488 189.271 62.488C194.22 62.488 198.53 63.64 202.199 65.944C205.954 68.1627 208.855 71.2773 210.903 75.288C212.951 79.2133 213.975 83.8213 213.975 89.112V127H197.847V90.392C197.847 85.6133 196.652 82.0293 194.263 79.64C191.959 77.2507 188.631 76.056 184.279 76.056C179.33 76.056 175.49 77.72 172.759 81.048C170.028 84.2907 168.663 88.856 168.663 94.744V127H152.535Z" fill="#46FCD6"/>
<path d="M377.56 127.792C372.525 127.792 367.789 126.555 363.352 124.08C359 121.52 355.501 117.808 352.856 112.944C350.211 108.08 348.888 102.192 348.888 95.28V93.232C348.888 86.32 350.211 80.432 352.856 75.568C355.501 70.704 359 67.0347 363.352 64.56C367.704 62 372.44 60.72 377.56 60.72C381.4 60.72 384.6 61.1893 387.16 62.128C389.805 62.9813 391.939 64.0907 393.56 65.456C395.181 66.8213 396.419 68.272 397.272 69.808H399.576V36.4H415.704V126H399.832V118.32H397.528C396.077 120.709 393.816 122.885 390.744 124.848C387.757 126.811 383.363 127.792 377.56 127.792ZM382.424 113.712C387.373 113.712 391.512 112.133 394.84 108.976C398.168 105.733 399.832 101.04 399.832 94.896V93.616C399.832 87.472 398.168 82.8213 394.84 79.664C391.597 76.4213 387.459 74.8 382.424 74.8C377.475 74.8 373.336 76.4213 370.008 79.664C366.68 82.8213 365.016 87.472 365.016 93.616V94.896C365.016 101.04 366.68 105.733 370.008 108.976C373.336 112.133 377.475 113.712 382.424 113.712ZM446.897 127.792C442.374 127.792 438.321 127.024 434.737 125.488C431.153 123.867 428.294 121.563 426.161 118.576C424.113 115.504 423.089 111.792 423.089 107.44C423.089 103.088 424.113 99.4613 426.161 96.56C428.294 93.5733 431.196 91.3547 434.865 89.904C438.62 88.368 442.886 87.6 447.665 87.6H465.073V84.016C465.073 81.0293 464.134 78.5973 462.257 76.72C460.38 74.7573 457.393 73.776 453.297 73.776C449.286 73.776 446.3 74.7147 444.337 76.592C442.374 78.384 441.094 80.7307 440.497 83.632L425.649 78.64C426.673 75.3973 428.294 72.4533 430.513 69.808C432.817 67.0773 435.846 64.9013 439.601 63.28C443.441 61.5733 448.092 60.72 453.553 60.72C461.916 60.72 468.529 62.8107 473.393 66.992C478.257 71.1733 480.689 77.232 480.689 85.168V108.848C480.689 111.408 481.884 112.688 484.273 112.688H489.393V126H478.641C475.484 126 472.881 125.232 470.833 123.696C468.785 122.16 467.761 120.112 467.761 117.552V117.424H465.329C464.988 118.448 464.22 119.813 463.025 121.52C461.83 123.141 459.953 124.592 457.393 125.872C454.833 127.152 451.334 127.792 446.897 127.792ZM449.713 114.736C454.236 114.736 457.905 113.499 460.721 111.024C463.622 108.464 465.073 105.093 465.073 100.912V99.632H448.817C445.83 99.632 443.484 100.272 441.777 101.552C440.07 102.832 439.217 104.624 439.217 106.928C439.217 109.232 440.113 111.109 441.905 112.56C443.697 114.011 446.3 114.736 449.713 114.736ZM519.135 127.792C514.1 127.792 509.364 126.555 504.927 124.08C500.575 121.52 497.076 117.808 494.431 112.944C491.786 108.08 490.463 102.192 490.463 95.28V93.232C490.463 86.32 491.786 80.432 494.431 75.568C497.076 70.704 500.575 67.0347 504.927 64.56C509.279 62 514.015 60.72 519.135 60.72C522.975 60.72 526.175 61.1893 528.735 62.128C531.38 62.9813 533.514 64.0907 535.135 65.456C536.756 66.8213 537.994 68.272 538.847 69.808H541.151V36.4H557.279V126H541.407V118.32H539.103C537.652 120.709 535.391 122.885 532.319 124.848C529.332 126.811 524.938 127.792 519.135 127.792ZM523.999 113.712C528.948 113.712 533.087 112.133 536.415 108.976C539.743 105.733 541.407 101.04 541.407 94.896V93.616C541.407 87.472 539.743 82.8213 536.415 79.664C533.172 76.4213 529.034 74.8 523.999 74.8C519.05 74.8 514.911 76.4213 511.583 79.664C508.255 82.8213 506.591 87.472 506.591 93.616V94.896C506.591 101.04 508.255 105.733 511.583 108.976C514.911 112.133 519.05 113.712 523.999 113.712ZM597.688 127.792C591.373 127.792 585.784 126.469 580.92 123.824C576.141 121.093 572.387 117.296 569.656 112.432C567.011 107.483 565.688 101.68 565.688 95.024V93.488C565.688 86.832 567.011 81.072 569.656 76.208C572.301 71.2587 576.013 67.4613 580.792 64.816C585.571 62.0853 591.117 60.72 597.432 60.72C603.661 60.72 609.08 62.128 613.688 64.944C618.296 67.6747 621.88 71.5147 624.44 76.464C627 81.328 628.28 87.0027 628.28 93.488V98.992H582.072C582.243 103.344 583.864 106.885 586.936 109.616C590.008 112.347 593.763 113.712 598.2 113.712C602.723 113.712 606.051 112.731 608.184 110.768C610.317 108.805 611.939 106.629 613.048 104.24L626.232 111.152C625.037 113.371 623.288 115.803 620.984 118.448C618.765 121.008 615.779 123.227 612.024 125.104C608.269 126.896 603.491 127.792 597.688 127.792ZM582.2 86.96H611.896C611.555 83.2907 610.061 80.3467 607.416 78.128C604.856 75.9093 601.485 74.8 597.304 74.8C592.952 74.8 589.496 75.9093 586.936 78.128C584.376 80.3467 582.797 83.2907 582.2 86.96ZM662.603 127.792C654.326 127.792 647.542 126 642.251 122.416C636.96 118.832 633.76 113.712 632.651 107.056L647.499 103.216C648.096 106.203 649.078 108.549 650.443 110.256C651.894 111.963 653.643 113.2 655.691 113.968C657.824 114.651 660.128 114.992 662.603 114.992C666.358 114.992 669.131 114.352 670.923 113.072C672.715 111.707 673.611 110.043 673.611 108.08C673.611 106.117 672.758 104.624 671.051 103.6C669.344 102.491 666.614 101.595 662.859 100.912L659.275 100.272C654.838 99.4187 650.784 98.2667 647.115 96.816C643.446 95.28 640.502 93.1893 638.283 90.544C636.064 87.8987 634.955 84.4853 634.955 80.304C634.955 73.9893 637.259 69.168 641.867 65.84C646.475 62.4267 652.534 60.72 660.043 60.72C667.126 60.72 673.014 62.2987 677.707 65.456C682.4 68.6133 685.472 72.752 686.923 77.872L671.947 82.48C671.264 79.2373 669.856 76.9333 667.723 75.568C665.675 74.2027 663.115 73.52 660.043 73.52C656.971 73.52 654.624 74.0747 653.003 75.184C651.382 76.208 650.571 77.6587 650.571 79.536C650.571 81.584 651.424 83.12 653.131 84.144C654.838 85.0827 657.142 85.808 660.043 86.32L663.627 86.96C668.406 87.8133 672.715 88.9653 676.555 90.416C680.48 91.7813 683.552 93.7867 685.771 96.432C688.075 98.992 689.227 102.491 689.227 106.928C689.227 113.584 686.795 118.747 681.931 122.416C677.152 126 670.71 127.792 662.603 127.792Z" fill="#46FCD6"/>
<mask id="mask0_103_93" style="mask-type:alpha" maskUnits="userSpaceOnUse" x="220" y="53" width="30" height="85">
<ellipse cx="235" cy="95.5" rx="15" ry="42.5" fill="#D9D9D9"/>
</mask>
<g mask="url(#mask0_103_93)">
<path d="M248.56 128.792C243.525 128.792 238.789 127.555 234.352 125.08C230 122.52 226.501 118.808 223.856 113.944C221.211 109.08 219.888 103.192 219.888 96.28V94.232C219.888 87.32 221.211 81.432 223.856 76.568C226.501 71.704 230 68.0347 234.352 65.56C238.704 63 243.44 61.72 248.56 61.72C252.4 61.72 255.6 62.1893 258.16 63.128C260.805 63.9813 262.939 65.0907 264.56 66.456C266.181 67.8213 267.419 69.272 268.272 70.808H270.576V37.4H286.704V127H270.832V119.32H268.528C267.077 121.709 264.816 123.885 261.744 125.848C258.757 127.811 254.363 128.792 248.56 128.792ZM253.424 114.712C258.373 114.712 262.512 113.133 265.84 109.976C269.168 106.733 270.832 102.04 270.832 95.896V94.616C270.832 88.472 269.168 83.8213 265.84 80.664C262.597 77.4213 258.459 75.8 253.424 75.8C248.475 75.8 244.336 77.4213 241.008 80.664C237.68 83.8213 236.016 88.472 236.016 94.616V95.896C236.016 102.04 237.68 106.733 241.008 109.976C244.336 113.133 248.475 114.712 253.424 114.712Z" fill="#46FCD6"/>
</g>
<path d="M242.934 120.75L322 121" stroke="#46FCD6" stroke-width="13"/>
<path d="M242 70L319 69" stroke="#46FCD6" stroke-width="13"/>
<path d="M244 63H319" stroke="#46FCD6" stroke-width="2"/>
<path d="M242 127H317" stroke="#46FCD6" stroke-width="2"/>
<path d="M244 76H319" stroke="#46FCD6" stroke-width="2"/>
<path d="M244 128L317.5 128" stroke="#46FCD6" stroke-linecap="round"/>
<path d="M242.003 114.471H313.5" stroke="#46FCD6" stroke-linecap="round"/>
<path d="M244 127L322 126" stroke="#46FCD6" stroke-linecap="round"/>
<rect x="319.162" y="119.771" width="4.67245" height="8" transform="rotate(-19.7917 319.162 119.771)" fill="#46FCD6"/>
<circle cx="323.5" cy="121.5" r="5.5" fill="#46FCD6"/>
<mask id="mask1_103_93" style="mask-type:alpha" maskUnits="userSpaceOnUse" x="312" y="53" width="30" height="85">
<ellipse cx="15" cy="42.5" rx="15" ry="42.5" transform="matrix(-1 0 0 1 342 53)" fill="#D9D9D9"/>
</mask>
<g mask="url(#mask1_103_93)">
<path d="M313.44 128.792C318.475 128.792 323.211 127.555 327.648 125.08C332 122.52 335.499 118.808 338.144 113.944C340.789 109.08 342.112 103.192 342.112 96.28V94.232C342.112 87.32 340.789 81.432 338.144 76.568C335.499 71.704 332 68.0347 327.648 65.56C323.296 63 318.56 61.72 313.44 61.72C309.6 61.72 306.4 62.1893 303.84 63.128C301.195 63.9813 299.061 65.0907 297.44 66.456C295.819 67.8213 294.581 69.272 293.728 70.808H291.424V37.4H275.296V127H291.168V119.32H293.472C294.923 121.709 297.184 123.885 300.256 125.848C303.243 127.811 307.637 128.792 313.44 128.792ZM308.576 114.712C303.627 114.712 299.488 113.133 296.16 109.976C292.832 106.733 291.168 102.04 291.168 95.896V94.616C291.168 88.472 292.832 83.8213 296.16 80.664C299.403 77.4213 303.541 75.8 308.576 75.8C313.525 75.8 317.664 77.4213 320.992 80.664C324.32 83.8213 325.984 88.472 325.984 94.616V95.896C325.984 102.04 324.32 106.733 320.992 109.976C317.664 113.133 313.525 114.712 308.576 114.712Z" fill="#46FCD6"/>
</g>
</svg>
