<svg width="24" height="24" viewBox="0 0 24 24" fill="none" xmlns="http://www.w3.org/2000/svg">
<path fill-rule="evenodd" clip-rule="evenodd" d="M5 14.997C5.19891 14.997 5.38968 15.076 5.53033 15.2167C5.67098 15.3573 5.75 15.5481 5.75 15.747V18C5.75 18.138 5.862 18.25 6 18.25H18C18.0663 18.25 18.1299 18.2237 18.1768 18.1768C18.2237 18.1299 18.25 18.0663 18.25 18V15.747C18.25 15.5481 18.329 15.3573 18.4697 15.2167C18.6103 15.076 18.8011 14.997 19 14.997C19.1989 14.997 19.3897 15.076 19.5303 15.2167C19.671 15.3573 19.75 15.5481 19.75 15.747V18C19.75 18.4641 19.5656 18.9093 19.2374 19.2374C18.9092 19.5656 18.4641 19.75 18 19.75H6C5.53587 19.75 5.09075 19.5656 4.76256 19.2374C4.43437 18.9093 4.25 18.4641 4.25 18V15.747C4.25 15.5481 4.32902 15.3573 4.46967 15.2167C4.61032 15.076 4.80109 14.997 5 14.997Z" fill="#46FCD6"/>
<path fill-rule="evenodd" clip-rule="evenodd" d="M12.202 5.58002C12.4009 5.58002 12.5917 5.65903 12.7324 5.79969C12.873 5.94034 12.952 6.1311 12.952 6.33002V14.416C12.952 14.6149 12.873 14.8057 12.7324 14.9463C12.5917 15.087 12.4009 15.166 12.202 15.166C12.0031 15.166 11.8123 15.087 11.6717 14.9463C11.531 14.8057 11.452 14.6149 11.452 14.416V6.33102C11.452 6.1321 11.531 5.94134 11.6717 5.80069C11.8123 5.66004 12.0031 5.58002 12.202 5.58002Z" fill="#46FCD6"/>
<path fill-rule="evenodd" clip-rule="evenodd" d="M11.678 4.46403C11.8181 4.3272 12.0062 4.25061 12.202 4.25061C12.3978 4.25061 12.5859 4.3272 12.726 4.46403L16.07 7.73002C16.2093 7.86964 16.2881 8.05853 16.2891 8.25578C16.2902 8.45303 16.2135 8.64276 16.0757 8.78387C15.9379 8.92499 15.75 9.00612 15.5528 9.00971C15.3555 9.01329 15.1648 8.93904 15.022 8.80303L12.202 6.04902L9.38199 8.80303C9.31184 8.87331 9.22844 8.92896 9.13662 8.96676C9.04479 9.00456 8.94638 9.02374 8.84708 9.02321C8.74779 9.02267 8.64959 9.00242 8.55818 8.96364C8.46677 8.92485 8.38397 8.8683 8.31459 8.79726C8.24521 8.72622 8.19063 8.64212 8.154 8.54982C8.11738 8.45752 8.09945 8.35887 8.10126 8.25959C8.10306 8.16031 8.12456 8.06237 8.16452 7.97147C8.20447 7.88056 8.26207 7.79849 8.33399 7.73002L11.678 4.46403Z" fill="#46FCD6"/>
</svg>
